<svg id="svg" version="1.1" xmlns="http://www.w3.org/2000/svg" xmlns:xlink="http://www.w3.org/1999/xlink" width="250" viewBox="0, 0, 400,100.31861629494766"><g id="svgg"><path id="path0" d="M50.205 39.341 C 36.945 41.716,38.543 60.766,52.000 60.741 C 56.704 60.733,59.925 58.611,58.816 56.250 C 57.846 54.187,56.910 53.826,55.104 54.820 C 50.758 57.212,46.166 54.711,46.167 49.952 C 46.167 45.333,51.225 42.744,55.241 45.307 C 56.935 46.389,59.167 44.951,59.167 42.779 C 59.167 40.745,53.819 38.694,50.205 39.341 M26.505 39.590 C 25.444 40.064,24.991 40.836,21.915 47.417 C 21.615 48.058,20.378 50.608,19.167 53.083 C 16.286 58.966,16.252 59.267,18.353 60.317 C 20.431 61.355,20.921 61.093,22.379 58.167 L 23.417 56.083 27.415 56.083 L 31.414 56.083 32.440 58.187 C 33.800 60.975,34.466 61.363,36.298 60.434 C 38.380 59.380,38.428 58.887,36.780 55.457 C 31.009 43.437,29.345 40.160,28.833 39.801 C 28.226 39.376,27.193 39.282,26.505 39.590 M63.868 39.667 C 63.022 40.024,63.000 40.288,63.000 49.970 C 63.000 59.543,63.023 59.831,63.810 60.237 C 64.833 60.765,66.885 60.640,67.513 60.013 L 68.000 59.526 68.000 53.999 C 68.000 50.645,68.061 48.494,68.156 48.528 C 68.241 48.558,69.273 49.896,70.447 51.500 C 74.075 56.453,74.820 56.448,78.434 51.443 C 79.544 49.906,80.538 48.562,80.643 48.457 C 80.786 48.314,80.833 49.621,80.833 53.706 C 80.833 60.538,80.833 60.537,83.421 60.537 C 85.983 60.537,85.851 61.135,85.796 49.755 L 85.750 40.342 85.371 39.963 C 84.905 39.497,82.396 39.324,81.667 39.707 C 81.236 39.933,80.171 41.250,76.542 46.039 C 75.380 47.573,74.379 48.773,74.318 48.706 C 74.257 48.638,72.783 46.708,71.041 44.417 C 69.300 42.125,67.708 40.100,67.504 39.917 C 67.083 39.539,64.578 39.367,63.868 39.667 M28.415 49.875 L 29.308 51.750 27.465 51.797 C 26.452 51.823,25.590 51.813,25.551 51.773 C 25.464 51.686,27.299 48.000,27.429 48.000 C 27.481 48.000,27.924 48.844,28.415 49.875 " stroke="none" fill="#fbfbfc" fill-rule="evenodd"/><path id="path1" d="M48.333 1.109 C 42.149 2.320,34.561 6.299,27.409 12.083 C 26.502 12.817,25.613 13.529,25.433 13.667 C 22.103 16.213,12.626 26.283,10.689 29.333 C 10.543 29.563,10.381 29.787,10.328 29.833 C 8.493 31.422,3.708 40.641,2.517 44.885 C 0.261 52.917,3.546 62.246,12.641 73.635 C 14.624 76.118,18.884 80.869,20.442 82.333 C 24.058 85.734,28.815 89.739,30.933 91.167 C 31.137 91.304,32.042 91.914,32.944 92.523 C 39.651 97.046,45.401 99.322,51.146 99.725 C 60.060 100.350,79.076 87.812,88.948 74.799 C 93.413 68.914,94.457 67.401,96.281 64.167 C 101.077 55.661,101.852 49.279,98.969 42.023 C 97.153 37.452,93.608 31.545,90.054 27.167 C 89.942 27.029,89.492 26.467,89.052 25.917 C 88.613 25.367,87.798 24.429,87.241 23.833 C 86.683 23.238,85.639 22.113,84.920 21.333 C 82.415 18.620,77.141 13.656,75.250 12.231 C 74.792 11.886,74.042 11.295,73.583 10.917 C 70.055 8.007,64.163 4.533,59.752 2.762 C 56.126 1.306,51.067 0.574,48.333 1.109 M53.139 39.169 C 55.138 39.429,57.621 40.473,58.789 41.545 C 59.675 42.358,59.417 43.696,58.107 45.081 C 57.025 46.225,56.543 46.280,55.144 45.416 C 50.532 42.570,45.082 46.342,46.396 51.471 C 47.370 55.271,51.892 56.873,55.238 54.602 C 56.532 53.724,57.408 53.905,58.328 55.242 C 59.801 57.383,59.555 58.308,57.167 59.622 C 50.896 63.069,42.723 59.467,41.161 52.568 C 39.691 46.075,44.006 39.997,50.667 39.177 C 51.262 39.104,51.788 39.036,51.833 39.027 C 51.879 39.018,52.467 39.082,53.139 39.169 M28.850 39.708 C 29.508 40.144,29.753 40.618,36.010 53.583 C 38.451 58.639,38.470 58.703,37.786 59.528 C 37.270 60.150,35.556 61.000,34.819 61.000 C 33.887 61.000,33.461 60.525,32.352 58.249 L 31.335 56.161 27.388 56.205 L 23.441 56.250 22.429 58.294 C 21.003 61.175,20.435 61.481,18.388 60.473 C 15.941 59.269,15.882 59.585,20.250 50.583 C 23.699 43.475,24.667 41.450,24.667 41.338 C 24.667 39.931,27.512 38.822,28.850 39.708 M67.105 39.602 C 67.460 39.750,67.802 39.954,67.866 40.056 C 67.930 40.158,68.248 40.581,68.571 40.996 C 69.552 42.253,71.229 44.441,71.583 44.927 C 71.767 45.179,72.377 45.974,72.940 46.695 C 73.503 47.416,74.065 48.153,74.190 48.332 C 74.401 48.635,74.541 48.493,76.206 46.287 C 77.191 44.983,78.524 43.242,79.169 42.417 C 79.814 41.592,80.508 40.678,80.711 40.387 C 81.766 38.870,85.420 38.952,85.851 40.502 C 86.045 41.197,86.020 58.673,85.824 59.377 C 85.558 60.334,85.038 60.583,83.310 60.583 C 80.655 60.582,80.705 60.710,80.683 53.862 L 80.667 48.641 80.285 49.112 C 80.076 49.371,79.794 49.744,79.660 49.941 C 79.431 50.278,77.571 52.888,77.302 53.250 C 75.137 56.165,73.600 55.974,71.025 52.472 C 70.194 51.341,69.446 50.338,69.364 50.241 C 69.282 50.145,68.998 49.737,68.732 49.336 L 68.250 48.607 68.167 54.151 L 68.083 59.696 67.628 60.087 C 66.758 60.835,64.156 60.838,63.409 60.091 C 62.843 59.525,62.807 58.807,62.864 49.250 C 62.921 39.802,62.900 40.006,63.888 39.576 C 64.613 39.261,66.318 39.275,67.105 39.602 M26.508 49.901 C 26.045 50.876,25.667 51.710,25.667 51.754 C 25.667 51.798,26.454 51.833,27.417 51.833 C 28.379 51.833,29.167 51.794,29.167 51.747 C 29.167 51.649,27.506 48.284,27.410 48.188 C 27.376 48.154,26.970 48.925,26.508 49.901 " stroke="none" fill="#146cfc" fill-rule="evenodd"/><path id="path2" d="M301.000 33.270 C 300.771 33.312,300.433 33.412,300.250 33.491 C 300.067 33.571,299.585 33.760,299.180 33.911 C 294.655 35.603,293.197 42.531,296.642 45.976 C 297.758 47.091,300.376 48.228,303.410 48.915 C 306.139 49.533,306.890 50.351,306.235 51.989 C 305.423 54.018,302.668 53.831,300.164 51.577 C 297.857 49.500,296.406 49.595,294.862 51.925 C 293.920 53.348,294.265 54.598,296.106 56.439 C 299.879 60.212,307.826 60.014,311.000 56.068 C 312.862 53.753,313.339 48.646,311.865 46.809 C 310.187 44.719,308.785 44.037,304.339 43.151 C 301.609 42.607,300.542 41.604,301.178 40.182 C 301.713 38.987,304.034 38.553,305.235 39.423 C 307.513 41.074,308.250 41.243,309.372 40.375 C 310.145 39.778,311.333 37.908,311.333 37.290 C 311.333 34.764,305.392 32.453,301.000 33.270 M334.083 33.272 C 329.967 34.313,327.917 36.853,327.917 40.914 C 327.917 45.476,330.292 47.619,336.906 49.024 C 339.130 49.496,340.025 50.758,339.168 52.211 C 338.135 53.961,335.550 53.718,333.333 51.662 C 331.405 49.872,330.346 49.644,329.014 50.728 C 327.394 52.048,326.961 53.417,327.764 54.689 C 332.510 62.207,345.238 59.945,345.786 51.487 C 346.108 46.523,344.051 44.489,337.355 43.154 C 334.710 42.627,333.572 41.578,334.156 40.206 C 334.661 39.016,336.999 38.545,338.167 39.398 C 340.247 40.917,341.165 41.171,342.222 40.518 C 343.521 39.714,344.624 37.620,344.237 36.693 C 343.244 34.318,337.543 32.397,334.083 33.272 M318.905 33.662 C 317.780 33.832,317.405 34.055,317.184 34.688 C 316.947 35.368,316.924 57.112,317.160 57.732 C 317.758 59.305,322.149 59.252,322.953 57.662 C 323.286 57.005,323.257 35.539,322.923 34.739 C 322.537 33.816,320.863 33.368,318.905 33.662 M350.337 33.670 C 349.303 33.914,348.805 35.188,349.089 36.868 C 349.379 38.580,349.630 38.667,354.336 38.667 L 358.156 38.667 358.203 48.042 C 358.260 59.497,358.074 58.834,361.234 58.833 C 364.455 58.831,364.333 59.263,364.333 47.839 L 364.333 38.667 368.090 38.667 C 373.318 38.667,373.458 38.583,373.306 35.572 C 373.234 34.147,372.967 33.788,371.843 33.602 C 370.936 33.452,350.997 33.515,350.337 33.670 M131.396 35.614 C 130.313 36.154,130.333 35.939,130.333 47.069 C 130.333 59.492,130.170 58.833,133.258 58.833 C 134.676 58.833,134.710 58.824,135.267 58.267 L 135.833 57.700 135.833 54.022 C 135.833 49.275,136.290 48.333,138.590 48.333 C 140.623 48.333,140.890 48.950,140.997 53.894 L 141.083 57.871 141.660 58.352 C 142.821 59.320,145.651 58.991,146.259 57.817 C 146.598 57.160,146.605 50.083,146.268 48.800 C 145.341 45.276,143.095 43.142,140.044 42.887 C 138.919 42.792,137.263 43.117,137.000 43.483 C 136.954 43.547,136.673 43.770,136.375 43.978 L 135.833 44.356 135.833 40.606 C 135.833 36.511,135.771 36.161,134.962 35.667 C 134.273 35.247,132.195 35.216,131.396 35.614 M192.892 37.616 C 192.124 37.999,192.000 38.442,192.000 40.801 L 192.000 42.919 191.271 42.861 C 189.721 42.738,189.169 43.478,189.168 45.683 C 189.166 47.688,189.855 48.500,191.344 48.248 L 192.000 48.137 192.000 51.060 C 192.000 57.060,193.416 58.830,198.217 58.833 C 200.747 58.834,201.167 58.449,201.167 56.134 C 201.167 54.352,200.774 53.842,199.396 53.836 C 197.531 53.827,197.333 53.500,197.333 50.413 L 197.333 48.144 198.625 48.256 C 201.186 48.479,201.884 48.001,201.977 45.958 C 202.099 43.269,201.578 42.746,198.893 42.864 L 197.333 42.932 197.333 40.753 C 197.333 38.367,197.233 38.048,196.331 37.582 C 195.684 37.247,193.590 37.268,192.892 37.616 M272.552 37.659 C 271.850 38.086,271.669 38.789,271.667 41.083 L 271.666 42.917 270.754 42.917 C 269.320 42.917,269.098 43.237,269.027 45.404 C 268.950 47.751,269.520 48.532,271.092 48.237 L 271.667 48.130 271.670 50.606 C 271.678 56.997,273.117 58.833,278.112 58.833 C 280.236 58.833,280.725 58.507,280.918 56.963 C 281.195 54.749,280.731 53.981,279.020 53.824 C 277.187 53.656,277.167 53.622,277.167 50.662 L 277.167 48.209 278.881 48.229 C 281.433 48.260,282.044 47.566,281.771 44.949 C 281.584 43.162,280.945 42.748,278.543 42.857 L 277.202 42.918 277.140 40.648 C 277.071 38.156,277.008 37.981,276.035 37.574 C 275.167 37.211,273.207 37.259,272.552 37.659 M212.010 42.588 C 208.855 43.159,206.873 44.623,205.603 47.322 C 204.826 48.974,204.820 52.481,205.592 54.250 C 207.152 57.824,209.543 59.239,214.000 59.227 C 219.201 59.212,221.068 57.859,219.761 55.053 C 219.124 53.685,218.461 53.449,216.750 53.983 C 214.408 54.713,212.337 54.529,211.309 53.501 C 210.490 52.683,210.552 52.667,214.522 52.667 C 219.533 52.667,220.344 52.336,220.846 50.092 C 221.898 45.393,217.438 41.605,212.010 42.588 M118.363 42.927 C 111.066 44.891,110.230 55.092,117.113 58.187 C 117.555 58.386,118.097 58.632,118.317 58.733 C 119.190 59.134,122.816 58.961,123.871 58.468 C 127.053 56.981,127.481 55.196,125.157 53.106 C 124.115 52.170,123.706 52.132,122.332 52.847 C 119.777 54.177,117.326 52.465,118.161 49.934 C 118.583 48.656,120.619 47.768,121.667 48.405 C 123.521 49.532,124.213 49.592,125.192 48.708 C 125.949 48.026,126.662 46.689,126.665 45.947 C 126.673 43.735,121.864 41.985,118.363 42.927 M231.750 43.062 C 231.292 43.291,230.732 43.626,230.506 43.808 L 230.096 44.138 229.798 43.648 C 229.082 42.471,225.525 42.491,224.912 43.676 C 224.578 44.322,224.544 57.618,224.875 58.027 C 225.392 58.666,225.894 58.833,227.295 58.833 C 230.042 58.833,230.167 58.594,230.167 53.307 C 230.167 48.379,230.444 47.805,232.700 48.071 C 235.211 48.366,235.295 48.366,235.717 48.090 C 236.716 47.435,237.270 44.654,236.604 43.637 C 235.979 42.684,233.176 42.352,231.750 43.062 M155.548 43.075 C 151.674 44.286,149.272 48.757,150.322 52.802 C 151.604 57.735,157.471 60.581,160.609 57.791 C 160.964 57.475,160.970 57.476,161.080 57.822 C 161.382 58.776,164.276 59.223,165.462 58.499 C 166.333 57.968,166.348 57.828,166.297 50.562 L 166.250 43.841 165.788 43.379 C 164.749 42.340,161.376 42.789,160.965 44.021 C 160.917 44.165,160.702 44.084,160.281 43.763 C 159.092 42.856,157.152 42.574,155.548 43.075 M171.352 43.066 C 170.498 43.539,170.512 43.352,170.506 54.338 C 170.501 63.555,170.528 64.632,170.772 64.981 C 171.582 66.137,174.871 66.122,175.536 64.959 C 175.687 64.694,175.766 63.514,175.806 60.945 C 175.858 57.533,175.879 57.323,176.145 57.564 C 179.258 60.381,185.364 56.911,186.188 51.858 C 187.133 46.063,180.843 40.661,176.530 43.563 L 175.722 44.107 175.451 43.635 C 174.998 42.846,172.399 42.485,171.352 43.066 M254.745 43.066 C 249.991 44.555,247.643 51.600,250.644 55.367 C 253.391 58.814,257.784 60.005,259.749 57.835 C 260.039 57.514,260.047 57.515,260.383 57.942 C 261.571 59.452,264.921 59.117,265.420 57.437 C 266.101 55.145,265.687 43.806,264.899 43.152 C 264.021 42.423,260.709 42.859,260.300 43.758 L 260.114 44.166 259.540 43.728 C 258.429 42.881,256.282 42.585,254.745 43.066 M214.750 47.715 C 215.523 48.151,215.769 49.069,215.233 49.514 C 214.715 49.944,210.833 49.958,210.833 49.530 C 210.833 48.159,213.417 46.962,214.750 47.715 M159.542 48.725 C 160.421 49.374,160.846 50.670,160.490 51.614 C 159.841 53.335,157.793 53.853,156.415 52.643 C 154.116 50.624,157.082 46.907,159.542 48.725 M179.681 48.547 C 181.373 49.687,181.273 51.929,179.490 52.839 C 177.888 53.656,176.205 52.685,176.048 50.854 C 175.873 48.822,178.044 47.443,179.681 48.547 M258.547 48.528 C 258.710 48.614,259.066 48.991,259.339 49.367 C 261.275 52.041,257.361 54.880,255.325 52.279 C 253.737 50.251,256.250 47.325,258.547 48.528 " stroke="none" fill="#040404" fill-rule="evenodd"/><path id="path3" d="M62.911 50.000 C 62.911 54.813,62.932 56.781,62.958 54.375 C 62.984 51.969,62.984 48.031,62.958 45.625 C 62.932 43.219,62.911 45.188,62.911 50.000 " stroke="none" fill="#4d88fc" fill-rule="evenodd"/><path id="path4" d="" stroke="none" fill="#1c6cfc" fill-rule="evenodd"/><path id="path5" d="M65.125 39.451 C 65.331 39.491,65.669 39.491,65.875 39.451 C 66.081 39.411,65.912 39.379,65.500 39.379 C 65.087 39.379,64.919 39.411,65.125 39.451 M82.958 39.451 C 83.165 39.491,83.502 39.491,83.708 39.451 C 83.915 39.411,83.746 39.379,83.333 39.379 C 82.921 39.379,82.752 39.411,82.958 39.451 M85.911 49.917 C 85.911 54.867,85.932 56.868,85.958 54.363 C 85.984 51.859,85.984 47.809,85.958 45.363 C 85.932 42.918,85.911 44.967,85.911 49.917 M80.479 48.615 C 80.329 48.801,80.321 48.855,80.456 48.774 C 80.617 48.677,80.672 49.730,80.708 53.617 L 80.755 58.583 80.794 53.458 C 80.816 50.640,80.805 48.333,80.770 48.333 C 80.736 48.333,80.605 48.460,80.479 48.615 M68.074 53.750 C 68.074 56.683,68.097 57.860,68.125 56.365 C 68.152 54.869,68.152 52.469,68.125 51.031 C 68.097 49.593,68.074 50.817,68.074 53.750 M47.167 53.552 C 47.167 53.581,47.410 53.825,47.708 54.094 L 48.250 54.583 47.760 54.042 C 47.304 53.537,47.167 53.423,47.167 53.552 M51.542 55.782 C 51.702 55.823,51.965 55.823,52.125 55.782 C 52.285 55.740,52.154 55.705,51.833 55.705 C 51.512 55.705,51.381 55.740,51.542 55.782 M25.468 56.125 C 26.596 56.153,28.396 56.153,29.468 56.124 C 30.540 56.095,29.617 56.072,27.417 56.072 C 25.217 56.072,24.340 56.096,25.468 56.125 M51.542 60.953 C 51.794 60.991,52.206 60.991,52.458 60.953 C 52.710 60.915,52.504 60.883,52.000 60.883 C 51.496 60.883,51.290 60.915,51.542 60.953 " stroke="none" fill="#84acfc" fill-rule="evenodd"/><path id="path6" d="" stroke="none" fill="#44583c" fill-rule="evenodd"/><path id="path7" d="" stroke="none" fill="#0c38100" fill-rule="evenodd"/><path id="path8" d="" stroke="none" fill="#0c38100" fill-rule="evenodd"/></g></svg>
